<?xml version="1.0" encoding="utf-8"?>
<!-- Generator: Adobe Illustrator 25.0.1, SVG Export Plug-In . SVG Version: 6.00 Build 0)  -->
<svg version="1.1" id="Lag_1" xmlns="http://www.w3.org/2000/svg" xmlns:xlink="http://www.w3.org/1999/xlink" x="0px" y="0px"
	 viewBox="0 0 500 500" style="enable-background:new 0 0 500 500;" xml:space="preserve">
<style type="text/css">
	.st0{fill:none;stroke:#000000;stroke-width:10;stroke-miterlimit:10;}
	.st1{fill:none;stroke:#B3B3B3;stroke-width:10;stroke-miterlimit:10;}
	.st2{fill:#B3B3B3;}
</style>
<g>
	<g>
		<polyline class="st0" points="440,370.4 100.6,370.4 72.2,105.5 17,105.5 		"/>
	</g>
	<g>
		<polyline class="st1" points="430,360.4 90.6,360.4 62.2,95.5 7,95.5 		"/>
	</g>
</g>
<g>
	<g>
		<path d="M135.2,380.4c12.5,0,22.6,10.1,22.6,22.6s-10.1,22.6-22.6,22.6s-22.6-10.1-22.6-22.6S122.8,380.4,135.2,380.4
			 M135.2,370.4c-18,0-32.6,14.6-32.6,32.6c0,18,14.6,32.6,32.6,32.6s32.6-14.6,32.6-32.6C167.9,385,153.3,370.4,135.2,370.4
			L135.2,370.4z"/>
	</g>
	<g>
		<path class="st2" d="M125.2,370.4c12.5,0,22.6,10.1,22.6,22.6s-10.1,22.6-22.6,22.6s-22.6-10.1-22.6-22.6S112.8,370.4,125.2,370.4
			 M125.2,360.4c-18,0-32.6,14.6-32.6,32.6c0,18,14.6,32.6,32.6,32.6s32.6-14.6,32.6-32.6C157.9,375,143.3,360.4,125.2,360.4
			L125.2,360.4z"/>
	</g>
</g>
<g>
	<g>
		<path d="M407.4,380.4c12.5,0,22.6,10.1,22.6,22.6s-10.1,22.6-22.6,22.6s-22.6-10.1-22.6-22.6S395,380.4,407.4,380.4 M407.4,370.4
			c-18,0-32.6,14.6-32.6,32.6c0,18,14.6,32.6,32.6,32.6c18,0,32.6-14.6,32.6-32.6C440,385,425.4,370.4,407.4,370.4L407.4,370.4z"/>
	</g>
	<g>
		<path class="st2" d="M397.4,370.4c12.5,0,22.6,10.1,22.6,22.6s-10.1,22.6-22.6,22.6s-22.6-10.1-22.6-22.6S385,370.4,397.4,370.4
			 M397.4,360.4c-18,0-32.6,14.6-32.6,32.6c0,18,14.6,32.6,32.6,32.6c18,0,32.6-14.6,32.6-32.6C430,375,415.4,360.4,397.4,360.4
			L397.4,360.4z"/>
	</g>
</g>
<g>
	<g>
		<line class="st0" x1="86.3" y1="240.5" x2="466.8" y2="218"/>
	</g>
	<g>
		<line class="st1" x1="76.3" y1="230.5" x2="456.8" y2="208"/>
	</g>
</g>
<g>
	<g>
		<line class="st0" x1="174" y1="134" x2="174" y2="343"/>
	</g>
	<g>
		<line class="st1" x1="164" y1="124" x2="164" y2="333"/>
	</g>
</g>
<g>
	<g>
		<line class="st0" x1="277" y1="132" x2="277" y2="331"/>
	</g>
	<g>
		<line class="st1" x1="267" y1="122" x2="267" y2="321"/>
	</g>
</g>
<g>
	<g>
		<line class="st0" x1="375" y1="133" x2="375" y2="320"/>
	</g>
	<g>
		<line class="st1" x1="365" y1="123" x2="365" y2="310"/>
	</g>
</g>
<g>
	<g>
		<path d="M486.9,141l-57.2,162.8l-324.8,37.1L83.1,141H486.9 M501,131H72l24,221l341-39L501,131L501,131z"/>
	</g>
	<g>
		<path class="st2" d="M476.9,131l-57.2,162.8L94.9,330.9L73.1,131H476.9 M491,121H62l24,221l341-39L491,121L491,121z"/>
	</g>
</g>
</svg>
